<svg xmlns="http://www.w3.org/2000/svg" width="25" height="19.306" viewBox="0 0 25 19.306">
  <path d="M16421.787,1223.45a21.05,21.05,0,0,1-6.135-3.06v-6.127a22.054,22.054,0,0,1,3.52-8.485.061.061,0,0,1,.037-.029,20.807,20.807,0,0,1,5.152-1.6.087.087,0,0,1,.084.041,13.611,13.611,0,0,1,.65,1.316,19.447,19.447,0,0,1,5.789,0c.174-.4.422-.92.645-1.316a.076.076,0,0,1,.082-.041,20.877,20.877,0,0,1,5.158,1.6.052.052,0,0,1,.029.029,21.245,21.245,0,0,1,3.854,11.9v.553q-.012.965-.107,1.962a.069.069,0,0,1-.033.058,20.982,20.982,0,0,1-6.334,3.2.085.085,0,0,1-.09-.033,16.689,16.689,0,0,1-1.291-2.1.082.082,0,0,1,.041-.116,12.8,12.8,0,0,0,1.977-.941.08.08,0,0,0,.008-.132c-.137-.1-.268-.206-.4-.309a.069.069,0,0,0-.078-.012,14.968,14.968,0,0,1-12.729,0,.1.1,0,0,0-.084.012c-.127.107-.26.21-.391.309a.078.078,0,0,0,.008.132,13.983,13.983,0,0,0,1.977.945.076.076,0,0,1,.041.111,15.336,15.336,0,0,1-1.291,2.1.1.1,0,0,1-.07.031Zm8.141-8.686a2.293,2.293,0,1,0,2.277-2.554A2.431,2.431,0,0,0,16429.928,1214.764Zm-8.412,0a2.291,2.291,0,1,0,2.273-2.554A2.431,2.431,0,0,0,16421.516,1214.764Z" transform="translate(-16415.652 -1204.147)" fill="#fff"/>
</svg>
