<svg xmlns="http://www.w3.org/2000/svg" width="28.602" height="28.598" viewBox="0 0 28.602 28.598">
  <path d="M16373.789,1232.083a14.3,14.3,0,1,1,10.111,4.189A14.209,14.209,0,0,1,16373.789,1232.083Zm2.123-18.1a11.3,11.3,0,1,0,7.988-3.309A11.216,11.216,0,0,0,16375.912,1213.983Zm4.844,14.511a4.287,4.287,0,0,1-4.28-4.292v-.078a.118.118,0,0,1,.115-.115h3.721a.126.126,0,0,1,.119.144,1.278,1.278,0,0,0,.132.712,1.31,1.31,0,0,0,1.173.728h1.844v-1.436h-1.823a.119.119,0,0,1-.095-.185c.021-.029.046-.062.07-.1.169-.243.416-.621.658-1.054a8.306,8.306,0,0,0,.461-.918c.024-.058.05-.115.07-.173.033-.1.069-.193.1-.284s.045-.165.065-.243a3.619,3.619,0,0,0,.091-.835c0-.115-.008-.235-.017-.35a3.743,3.743,0,0,0-.037-.375,3.028,3.028,0,0,0-.053-.333c-.025-.169-.062-.333-.1-.5l-.017-.062c-.028-.115-.058-.222-.095-.338-.1-.358-.222-.708-.35-1.037-.045-.132-.1-.255-.148-.379-.078-.189-.16-.362-.23-.523-.036-.074-.069-.14-.1-.21s-.073-.152-.11-.226c-.025-.058-.058-.111-.078-.165l-.223-.416a.073.073,0,0,1,.082-.107l1.407.383h.009l.186.053.2.058.078.021v-.835a.722.722,0,0,1,1.235-.519.758.758,0,0,1,.209.519v1.243l.148.041a.105.105,0,0,1,.037.016c.037.029.09.07.156.119s.111.091.178.144c.135.111.295.251.473.411a1.385,1.385,0,0,1,.135.128c.23.21.486.461.734.737.064.078.131.156.2.239s.139.169.205.251c.082.111.174.226.252.346.037.053.078.111.111.169.1.152.188.309.275.465.033.074.07.152.1.23a3.181,3.181,0,0,1,.215.634.892.892,0,0,1,.029.14v.012a1.5,1.5,0,0,1,.027.2,2.171,2.171,0,0,1-.035.654c-.021.095-.051.185-.08.276a2.657,2.657,0,0,1-.1.272,3.875,3.875,0,0,1-.285.535c-.037.066-.078.132-.119.193s-.094.132-.135.193c-.059.078-.119.161-.186.235a2.158,2.158,0,0,1-.178.226c-.086.1-.168.2-.258.3a2.432,2.432,0,0,1-.17.181c-.053.062-.111.119-.164.173-.09.086-.16.156-.227.214l-.145.132a.126.126,0,0,1-.078.029h-1.119v1.436h1.412a1.309,1.309,0,0,0,.855-.317,10.388,10.388,0,0,0,.873-.856.091.091,0,0,1,.053-.033l3.895-1.128a.117.117,0,0,1,.146.111v.823a.123.123,0,0,1-.068.111,4.079,4.079,0,0,0-1.512,1.025c-.934,1.3-1.65,3.165-3.25,3.165Zm-3.243-5.918a.115.115,0,0,1-.1-.173l.058-.086,3.33-5.21a.11.11,0,0,1,.2.016,7.032,7.032,0,0,1,.811,3.761,5.878,5.878,0,0,1-.654,1.432,2.233,2.233,0,0,1-.123.21.111.111,0,0,1-.095.049Z" transform="translate(-16369.6 -1207.674)" fill="#fff"/>
</svg>
