<svg xmlns="http://www.w3.org/2000/svg" width="24.929" height="20.135" viewBox="0 0 24.929 20.135">
  <path d="M177.429,7.272a11.428,11.428,0,0,1-2.927.807,4.805,4.805,0,0,0,2.22-2.826,10.505,10.505,0,0,1-3.23,1.262A5.025,5.025,0,0,0,169.759,4.9a5.083,5.083,0,0,0-5.1,5.1,4.3,4.3,0,0,0,.151,1.161,14.293,14.293,0,0,1-10.5-5.349,4.922,4.922,0,0,0-.706,2.574,5.1,5.1,0,0,0,2.271,4.239,5.16,5.16,0,0,1-2.321-.656v.05a5.093,5.093,0,0,0,4.088,5,5.527,5.527,0,0,1-1.363.2,5.589,5.589,0,0,1-.959-.1,5.111,5.111,0,0,0,4.744,3.532,10.3,10.3,0,0,1-6.358,2.17,9.724,9.724,0,0,1-1.211-.05A14.55,14.55,0,0,0,174.856,10.5V9.845A8.35,8.35,0,0,0,177.429,7.272Z" transform="translate(-152.5 -4.9)" fill="#fff"/>
</svg>